<svg xmlns="http://www.w3.org/2000/svg" width="277" height="279" viewBox="0 0 277 279">
  <g id="辛丑2021" transform="translate(-653 -339)">
    <g id="楕円形_1" data-name="楕円形 1" transform="translate(653 340)" fill="#fff" stroke="#707070" stroke-width="1">
      <circle cx="138" cy="138" r="138" stroke="none"/>
      <circle cx="138" cy="138" r="137.5" fill="none"/>
    </g>
    <g id="楕円形_2" data-name="楕円形 2" transform="translate(653 340)" fill="none" stroke="#707070" stroke-width="1">
      <circle cx="138" cy="138" r="138" stroke="none"/>
      <circle cx="138" cy="138" r="137.5" fill="none"/>
    </g>
    <g id="楕円形_3" data-name="楕円形 3" transform="translate(699 385)" fill="none" stroke="#707070" stroke-width="1">
      <ellipse cx="92" cy="93" rx="92" ry="93" stroke="none"/>
      <ellipse cx="92" cy="93" rx="91.5" ry="92.5" fill="none"/>
    </g>
    <text id="子" transform="translate(772 376)" fill="#707070" font-size="37" font-family="YUNewYearFont-Regular, YUNewYearFont"><tspan x="0" y="0">子</tspan></text>
    <text id="丑" transform="translate(837 395)" fill="#707070" font-size="37" font-family="YUNewYearFont-Regular, YUNewYearFont"><tspan x="0" y="0">丑</tspan></text>
    <text id="寅" transform="translate(870 439)" fill="#707070" font-size="37" font-family="YUNewYearFont-Regular, YUNewYearFont"><tspan x="0" y="0">寅</tspan></text>
    <text id="卯" transform="translate(886 489)" fill="#707070" font-size="37" font-family="YUNewYearFont-Regular, YUNewYearFont"><tspan x="0" y="0">卯</tspan></text>
    <text id="辰" transform="translate(875 549)" fill="#707070" font-size="37" font-family="YUNewYearFont-Regular, YUNewYearFont"><tspan x="0" y="0">辰</tspan></text>
    <text id="巳" transform="translate(837 589)" fill="#707070" font-size="37" font-family="YUNewYearFont-Regular, YUNewYearFont"><tspan x="0" y="0">巳</tspan></text>
    <text id="午" transform="translate(773 611)" fill="#707070" font-size="37" font-family="YUNewYearFont-Regular, YUNewYearFont"><tspan x="0" y="0">午</tspan></text>
    <text id="未" transform="translate(717 594)" fill="#707070" font-size="37" font-family="YUNewYearFont-Regular, YUNewYearFont"><tspan x="0" y="0">未</tspan></text>
    <text id="申" transform="translate(672 550)" fill="#707070" font-size="37" font-family="YUNewYearFont-Regular, YUNewYearFont"><tspan x="0" y="0">申</tspan></text>
    <text id="酉" transform="translate(658 491)" fill="#707070" font-size="37" font-family="YUNewYearFont-Regular, YUNewYearFont"><tspan x="0" y="0">酉</tspan></text>
    <text id="戌" transform="translate(671 436)" fill="#707070" font-size="37" font-family="YUNewYearFont-Regular, YUNewYearFont"><tspan x="0" y="0">戌</tspan></text>
    <text id="亥" transform="translate(714 391)" fill="#707070" font-size="37" font-family="YUNewYearFont-Regular, YUNewYearFont"><tspan x="0" y="0">亥</tspan></text>
    <line id="線_1" data-name="線 1" y2="172" transform="translate(791.5 391.5)" fill="none" stroke="#707070" stroke-width="1"/>
    <line id="線_2" data-name="線 2" y2="172" transform="translate(834.5 403.022) rotate(30)" fill="none" stroke="#707070" stroke-width="1"/>
    <line id="線_3" data-name="線 3" y2="172" transform="translate(865.978 434.5) rotate(60)" fill="none" stroke="#707070" stroke-width="1"/>
    <line id="線_4" data-name="線 4" y2="172" transform="translate(877.5 477.5) rotate(90)" fill="none" stroke="#707070" stroke-width="1"/>
    <line id="線_5" data-name="線 5" y2="172" transform="translate(865.978 520.5) rotate(120)" fill="none" stroke="#707070" stroke-width="1"/>
    <line id="線_6" data-name="線 6" y2="172" transform="translate(834.5 551.978) rotate(150)" fill="none" stroke="#707070" stroke-width="1"/>
  </g>
</svg>
